# xmcd
#
# Track frame offsets:
#       150
#       16875
#       30752
#       48677
#       66607
#       85205
#       106155
#       124765
#       142102
#
# Disc length: 2060 seconds
#
# Revision: 0
# Processed by: cddbd v1.4PL0 Copyright (c) Steve Scherf et al.
# Submitted via: CD-DA_X-Tractor v0.21
#
DISCID=77080a09
DTITLE=Trickbag - Trickbag
DYEAR=1900
DGENRE=
TTITLE0=Ain't Nobody
TTITLE1=Black Rain
TTITLE2=Hard to be Cruel
TTITLE3=Reach Out
TTITLE4=Get It While It's Hot
TTITLE5=Mind Your Own Business
TTITLE6=Starvation Wages
TTITLE7=It Ain't Right
TTITLE8=Moose Legs Boogie
EXTD=
EXTT0=
EXTT1=
EXTT2=
EXTT3=
EXTT4=
EXTT5=
EXTT6=
EXTT7=
EXTT8=
PLAYORDER=
